<svg width="489" height="489" viewBox="0 0 489 489" fill="none"
  xmlns="http://www.w3.org/2000/svg">
  <g clip-path="url(#clip0_971_313)">
    <rect width="489" height="489" fill="white"/>
    <path d="M0 244.582V489H244.5H489V244.501V0H244.5L0 0.0812294V244.582ZM209.802 41.1833C210.398 41.427 208.952 45.2448 205.805 51.8242C201.043 61.6532 194.239 76.112 152.228 164.49C142.023 185.934 131.137 208.76 127.99 215.258C124.844 221.757 120.422 230.854 118.21 235.566C107.24 258.635 94.3134 285.522 83.0873 308.672C69.3103 337.265 49.9207 377.798 45.2431 388.115L42.0965 394.938L41.5863 380.398C40.8209 361.227 40.6508 49.4689 41.3311 44.4325L41.9264 40.5335L125.354 40.696C171.193 40.7772 209.207 41.0209 209.802 41.1833ZM448.179 217.451C448.179 332.472 447.924 394.044 447.329 393.475C446.903 393.069 441.206 381.535 434.657 367.969C428.194 354.323 420.2 337.671 416.883 331.01C413.651 324.268 404.807 306.235 397.323 290.802C379.804 254.654 355.737 205.917 351.825 198.606C349.018 193.164 348.593 192.839 343.831 191.052C321.719 182.685 304.881 162.946 300.203 139.877C298.588 132.079 299.523 117.377 302.245 108.604L304.456 101.537L301.819 96.4192C300.289 93.6577 296.377 85.697 292.975 78.7927C289.573 71.8879 283.875 60.4346 280.388 53.3676L273.925 40.6147H361.01H448.179V217.451ZM272.309 129.073C294.931 174.156 320.274 225.249 328.353 241.82L331.585 248.562H288.297H244.925V161.809C245.01 82.4479 245.095 75.2996 246.371 77.4928C247.051 78.7927 258.787 102.024 272.309 129.073ZM350.804 290.477C352.505 290.964 354.801 295.269 371.555 329.386C375.212 336.94 382.781 352.292 388.223 363.502C393.666 374.63 402.001 391.851 406.678 401.68C411.355 411.509 418.414 426.049 422.241 433.928L429.385 448.386H245.265C144.064 448.386 61.2313 448.224 61.2313 447.981C61.2313 447.737 62.592 444.731 64.2931 441.32C68.0346 433.522 70.246 429.054 74.6684 419.388C76.6244 415.327 79.3457 409.64 80.7064 406.797C82.067 404.035 87.7651 392.176 93.3776 380.56C98.9907 368.944 105.114 356.354 106.985 352.536C110.386 345.469 120.677 324.106 129.011 306.641C131.562 301.28 134.454 295.351 135.474 293.401L137.345 289.989H243.224C301.479 289.989 349.869 290.233 350.804 290.477Z" fill="#001117"/>
    <path d="M359.053 69.7358C337.877 75.0064 321.804 90.9008 316.276 111.822C313.725 121.472 314.32 136.393 317.552 145.069C321.379 155.53 329.798 166.397 339.493 173.533C343.235 176.209 353.696 180.507 360.244 182.048C369.429 184.156 385.077 183.426 394.346 180.507C402.34 177.993 412.12 172.154 417.478 166.64C422.836 161.045 428.534 152.206 431.34 144.908C434.912 135.663 435.677 121.959 433.041 112.065C427.258 90.4953 412.205 75.5743 390.179 69.7358C381.93 67.5464 367.813 67.5464 359.053 69.7358Z" fill="#001117"/>
    <path d="M135.22 343.18C135.22 343.342 135.135 353.074 135.05 364.913L134.965 386.402L245.266 386.645L355.482 386.808L355.312 365.156L355.058 343.424L245.181 343.18C184.716 343.099 135.22 343.099 135.22 343.18Z" fill="#001117"/>
  </g>
  <defs>
    <clipPath id="clip0_971_313">
      <rect width="489" height="489" fill="white"/>
    </clipPath>
  </defs>
</svg>
