<svg clip-rule="evenodd" fill-rule="evenodd" stroke-linecap="round" stroke-linejoin="round" viewBox="0 0 20 20"
  xmlns="http://www.w3.org/2000/svg">
  <g fill="none" stroke="currentColor">
    <path d="m10 17.5c4.142 0 7.5-3.358 7.5-7.5s-3.358-7.5-7.5-7.5-7.5 3.358-7.5 7.5 3.358 7.5 7.5 7.5z"/>
    <path d="m6.875 10c0 2.927 1.041 5.541 2.678 7.304.057.062.126.111.203.145s.16.051.244.051.167-.017.244-.051.146-.083.203-.145c1.637-1.763 2.678-4.377 2.678-7.304 0-2.926-1.041-5.541-2.678-7.304-.057-.062-.126-.111-.203-.145s-.16-.051-.244-.051-.167.017-.244.051-.146.083-.203.145c-1.637 1.763-2.678 4.378-2.678 7.304z"/>
    <path d="m2.93 7.5h14.147"/>
    <path d="m2.93 12.5h14.147"/>
  </g>
</svg>
